<svg width="140" height="140" viewBox="0 0 140 140" fill="none" xmlns="http://www.w3.org/2000/svg">
<path d="M44.7461 79H54.585V77.8281H46.0156V61.3242H44.7461V79ZM62.6172 79.2686C65.9497 79.2808 68.3423 76.4121 68.3545 72.4082C68.3423 68.4165 65.9497 65.5479 62.6172 65.5479C59.2847 65.5479 56.8921 68.4043 56.8799 72.4082C56.8921 76.4121 59.2847 79.2808 62.6172 79.2686ZM58.125 72.4082C58.1128 69.2466 59.8706 66.6709 62.6172 66.6709C65.3638 66.6709 67.1094 69.2466 67.1094 72.4082C67.1094 75.6064 65.376 78.1455 62.6172 78.1455C59.8584 78.1455 58.1128 75.6064 58.125 72.4082ZM76.3135 84.249C79.4385 84.249 81.5991 82.6499 81.5869 79.3174V65.7432H80.3906V68.5752H80.2686C79.6582 67.0127 78.3887 65.5479 76.0693 65.5479C72.8345 65.5479 70.7104 68.3066 70.6982 72.3105C70.7104 76.3267 72.8955 78.9146 76.0449 78.9023C78.2788 78.9146 79.6704 77.6328 80.2686 76.0703H80.3662V79.2686C80.3784 81.8931 78.8525 83.1382 76.3135 83.1504C74.3604 83.1382 72.8223 82.418 72.4561 80.9531H71.1621C71.5405 83.1382 73.6523 84.249 76.3135 84.249ZM71.9434 72.335C71.9434 69.1489 73.4814 66.6831 76.167 66.6709C78.8403 66.6831 80.3906 69.0757 80.3906 72.335C80.3906 75.7163 78.7915 77.7793 76.167 77.7793C73.5059 77.7793 71.9434 75.5698 71.9434 72.335ZM90.4492 79.2686C93.7817 79.2808 96.1743 76.4121 96.1865 72.4082C96.1743 68.4165 93.7817 65.5479 90.4492 65.5479C87.1167 65.5479 84.7241 68.4043 84.7119 72.4082C84.7241 76.4121 87.1167 79.2808 90.4492 79.2686ZM85.957 72.4082C85.9448 69.2466 87.7026 66.6709 90.4492 66.6709C93.1958 66.6709 94.9414 69.2466 94.9414 72.4082C94.9414 75.6064 93.208 78.1455 90.4492 78.1455C87.6904 78.1455 85.9448 75.6064 85.957 72.4082Z" fill="#7B73FA"/>
<rect x="0.5" y="0.5" width="139" height="139" rx="39.5" stroke="#7B73FA" stroke-dasharray="10 10"/>
</svg>
